<svg width="46" height="46" viewBox="0 0 46 46" fill="none" xmlns="http://www.w3.org/2000/svg">
<rect width="46" height="46" rx="23" fill="#FAFAFA"/>
<path d="M17.3222 17.5068C17.2563 17.4371 17.2049 17.3552 17.1707 17.2656C17.1366 17.1761 17.1204 17.0807 17.1231 16.9848C17.1258 16.889 17.1473 16.7947 17.1865 16.7072C17.2257 16.6197 17.2817 16.5408 17.3514 16.475C17.421 16.4092 17.503 16.3577 17.5925 16.3236C17.6821 16.2894 17.7775 16.2732 17.8733 16.2759C17.9691 16.2786 18.0634 16.3002 18.1509 16.3394C18.2384 16.3785 18.3173 16.4345 18.3831 16.5042L24.5853 23.0712C24.7134 23.2067 24.7847 23.386 24.7847 23.5725C24.7847 23.7589 24.7134 23.9383 24.5853 24.0738L18.3831 30.6415C18.3177 30.7127 18.2388 30.7702 18.151 30.8106C18.0632 30.851 17.9683 30.8736 17.8717 30.8771C17.7751 30.8805 17.6787 30.8647 17.5883 30.8306C17.4978 30.7965 17.4151 30.7447 17.3448 30.6784C17.2745 30.612 17.2181 30.5323 17.1789 30.444C17.1397 30.3556 17.1184 30.2604 17.1163 30.1637C17.1142 30.0671 17.1313 29.971 17.1666 29.881C17.202 29.7911 17.2548 29.709 17.3222 29.6397L23.0515 23.5725L17.3222 17.5068Z" fill="black" fill-opacity="0.4"/>
<path d="M12.2145 17.5066C12.1487 17.437 12.0972 17.355 12.0631 17.2655C12.0289 17.1759 12.0127 17.0805 12.0154 16.9847C12.0181 16.8889 12.0397 16.7946 12.0788 16.7071C12.118 16.6196 12.174 16.5407 12.2437 16.4749C12.3134 16.4091 12.3953 16.3576 12.4849 16.3234C12.5744 16.2893 12.6698 16.2731 12.7656 16.2758C12.8614 16.2785 12.9558 16.3001 13.0432 16.3392C13.1307 16.3784 13.2096 16.4344 13.2754 16.5041L19.4776 23.0711C19.6057 23.2066 19.6771 23.3859 19.6771 23.5724C19.6771 23.7588 19.6057 23.9382 19.4776 24.0736L13.2754 30.6414C13.21 30.7125 13.1312 30.77 13.0434 30.8105C12.9556 30.8509 12.8606 30.8735 12.764 30.8769C12.6674 30.8804 12.5711 30.8646 12.4806 30.8305C12.3902 30.7964 12.3074 30.7446 12.2371 30.6783C12.1668 30.6119 12.1104 30.5322 12.0712 30.4439C12.032 30.3555 12.0107 30.2603 12.0086 30.1636C12.0065 30.067 12.0236 29.9709 12.059 29.8809C12.0943 29.7909 12.1472 29.7089 12.2145 29.6395L17.9438 23.5724L12.2145 17.5066Z" fill="black" fill-opacity="0.1"/>
<path d="M22.4298 17.5068C22.364 17.4371 22.3125 17.3552 22.2784 17.2656C22.2442 17.1761 22.228 17.0807 22.2307 16.9848C22.2335 16.889 22.255 16.7947 22.2942 16.7072C22.3333 16.6197 22.3894 16.5408 22.459 16.475C22.5287 16.4092 22.6106 16.3577 22.7002 16.3236C22.7897 16.2894 22.8851 16.2732 22.9809 16.2759C23.0767 16.2786 23.1711 16.3002 23.2586 16.3394C23.346 16.3785 23.4249 16.4345 23.4908 16.5042L29.6929 23.0712C29.821 23.2067 29.8924 23.386 29.8924 23.5725C29.8924 23.7589 29.821 23.9383 29.6929 24.0738L23.4908 30.6415C23.4254 30.7127 23.3465 30.7702 23.2587 30.8106C23.1709 30.851 23.0759 30.8736 22.9793 30.8771C22.8827 30.8805 22.7864 30.8647 22.696 30.8306C22.6055 30.7965 22.5227 30.7447 22.4525 30.6784C22.3822 30.612 22.3258 30.5323 22.2866 30.444C22.2473 30.3556 22.226 30.2604 22.2239 30.1637C22.2218 30.0671 22.2389 29.971 22.2743 29.881C22.3096 29.7911 22.3625 29.709 22.4298 29.6397L28.1592 23.5725L22.4298 17.5068Z" fill="black" fill-opacity="0.7"/>
<path d="M27.5375 17.5068C27.4717 17.4371 27.4202 17.3552 27.3861 17.2656C27.3519 17.1761 27.3357 17.0807 27.3384 16.9848C27.3411 16.889 27.3627 16.7947 27.4018 16.7072C27.441 16.6197 27.497 16.5408 27.5667 16.475C27.6364 16.4092 27.7183 16.3577 27.8078 16.3236C27.8974 16.2894 27.9928 16.2732 28.0886 16.2759C28.1844 16.2786 28.2787 16.3002 28.3662 16.3394C28.4537 16.3785 28.5326 16.4345 28.5984 16.5042L34.8006 23.0712C34.9287 23.2067 35 23.386 35 23.5725C35 23.7589 34.9287 23.9383 34.8006 24.0738L28.5984 30.6415C28.533 30.7127 28.4542 30.7702 28.3664 30.8106C28.2786 30.851 28.1836 30.8736 28.087 30.8771C27.9904 30.8805 27.8941 30.8647 27.8036 30.8306C27.7132 30.7965 27.6304 30.7447 27.5601 30.6784C27.4898 30.612 27.4334 30.5323 27.3942 30.444C27.355 30.3556 27.3337 30.2604 27.3316 30.1637C27.3295 30.0671 27.3466 29.971 27.382 29.881C27.4173 29.7911 27.4702 29.709 27.5375 29.6397L33.2668 23.5725L27.5375 17.5068Z" fill="black"/>
</svg>
