<svg width="18" height="19" viewBox="0 0 18 19" fill="none" xmlns="http://www.w3.org/2000/svg">
<path d="M15.3 10.6902C14.975 10.6096 14.4453 10.6066 14 10.6096C13.8511 10.6106 13.9411 10.6042 13.74 10.6096C13.2152 10.6259 12.701 10.8441 12.7 11.462C12.6988 12.1204 13.35 12.3152 14 12.3152C14.65 12.3152 15.3 12.4654 15.3 13.1683C15.3 13.6965 14.7751 13.9279 14.1209 14.0046C13.6009 14.0046 13.35 14.0214 12.7 13.9402M14 14.2651V14.9151M14 9.71515V10.3651M3.59998 9.06515H10.75M3.59998 9.06515C3.59998 12.296 6.21911 14.9151 9.44998 14.9151M3.59998 9.06515C3.59998 5.83428 6.21911 3.21515 9.44998 3.21515M9.44998 14.9151C9.66968 14.9151 9.88656 14.903 10.1 14.8794M9.44998 14.9151C4.74113 9.76715 7.48795 4.97015 9.44998 3.21515M9.44998 3.21515C11.9971 3.21515 14.164 4.84302 14.9671 7.11515M9.44998 3.21515C10.3209 3.99419 11.3465 5.37265 11.8059 7.11515" stroke="#7E7E7E" stroke-width="1.5" stroke-linecap="round" stroke-linejoin="round"/>
</svg>
