<svg width="16" height="24" viewBox="0 0 16 24" fill="none" xmlns="http://www.w3.org/2000/svg">
<mask id="mask0_201_202" style="mask-type:luminance" maskUnits="userSpaceOnUse" x="0" y="0" width="16" height="24">
<path d="M15.7555 0.887024H0.342804V23.1904H15.7555V0.887024Z" fill="white"/>
</mask>
<g mask="url(#mask0_201_202)">
<path d="M4.19681 23.19C6.32331 23.19 8.04921 21.525 8.04921 19.473V15.756H4.19681C2.07021 15.756 0.344406 17.421 0.344406 19.473C0.344406 21.525 2.07021 23.19 4.19681 23.19Z" fill="#0ACF83"/>
<path d="M0.344406 12.038C0.344406 9.98602 2.07021 8.32098 4.19681 8.32098H8.04921V15.756H4.19681C2.07021 15.756 0.344406 14.09 0.344406 12.038Z" fill="#A259FF"/>
<path d="M0.344406 4.604C0.344406 2.552 2.07021 0.887024 4.19681 0.887024H8.04921V8.32098H4.19681C2.07021 8.32098 0.344406 6.656 0.344406 4.604Z" fill="#F24E1E"/>
<path d="M8.04921 0.887024H11.9016C14.0281 0.887024 15.754 2.552 15.754 4.604C15.754 6.656 14.0281 8.32098 11.9016 8.32098H8.04921V0.887024Z" fill="#FF7262"/>
<path d="M15.754 12.038C15.754 14.09 14.0281 15.756 11.9016 15.756C9.77511 15.756 8.04921 14.09 8.04921 12.038C8.04921 9.98602 9.77511 8.32098 11.9016 8.32098C14.0281 8.32098 15.754 9.98602 15.754 12.038Z" fill="#1ABCFE"/>
</g>
</svg>
