<svg width="25" height="24" viewBox="0 0 25 24" fill="none" xmlns="http://www.w3.org/2000/svg">
<path fill-rule="evenodd" clip-rule="evenodd" d="M19.5462 3.64559C20.6011 2.38859 22.75 3.09015 22.75 4.69152V17.3471C22.75 18.8123 21.4872 20 19.9295 20H5.57051C4.01279 20 2.75 18.8123 2.75 17.3471V15.222C2.75 14.6947 2.91712 14.1793 3.23002 13.7416L7.01326 8.45033C7.61544 7.6081 8.86595 7.45247 9.6803 8.1184L13.1024 10.9168C13.2129 11.0071 13.3812 10.9923 13.4719 10.8842L19.5462 3.64559ZM21.2115 4.69152C21.2115 4.46275 20.9045 4.36253 20.7539 4.5421L14.6795 11.7807C14.0446 12.5372 12.8663 12.6412 12.093 12.0088L8.6709 9.21041C8.55456 9.11528 8.37591 9.13751 8.28989 9.25783L4.50665 14.5491C4.36443 14.748 4.28846 14.9823 4.28846 15.222V17.3471C4.28846 18.0131 4.86246 18.553 5.57051 18.553H19.9295C20.6375 18.553 21.2115 18.0131 21.2115 17.3471V4.69152Z" fill="#959595"/>
</svg>
