<svg width="25" height="24" viewBox="0 0 25 24" fill="none" xmlns="http://www.w3.org/2000/svg">
<path fill-rule="evenodd" clip-rule="evenodd" d="M10.75 3.70005C6.99451 3.70005 3.95005 6.74451 3.95005 10.5C3.95005 14.2556 6.99451 17.3 10.75 17.3C14.5056 17.3 17.55 14.2556 17.55 10.5C17.55 6.74451 14.5056 3.70005 10.75 3.70005ZM2.55005 10.5C2.55005 5.97131 6.22131 2.30005 10.75 2.30005C15.2788 2.30005 18.95 5.97131 18.95 10.5C18.95 12.5124 18.2252 14.3554 17.0223 15.7823L21.745 20.5051C22.0184 20.7784 22.0184 21.2217 21.745 21.495C21.4717 21.7684 21.0284 21.7684 20.7551 21.495L16.0323 16.7723C14.6054 17.9752 12.7624 18.7 10.75 18.7C6.22131 18.7 2.55005 15.0288 2.55005 10.5Z" fill="#959595"/>
</svg>
