<svg width="18" height="19" viewBox="0 0 18 19" fill="none" xmlns="http://www.w3.org/2000/svg">
<path d="M11.25 8.01514V7.95264C11.25 7.15873 10.6064 6.51514 9.8125 6.51514H8.25C7.42157 6.51514 6.75 7.18671 6.75 8.01514C6.75 8.84356 7.42157 9.51514 8.25 9.51514H9.75C10.5784 9.51514 11.25 10.1867 11.25 11.0151C11.25 11.8436 10.5784 12.5151 9.75 12.5151H8.21875C7.40758 12.5151 6.75 11.8576 6.75 11.0464V11.0151M9 13.6401V5.39014M5.4 15.5151H12.6C13.4401 15.5151 13.8601 15.5151 14.181 15.3516C14.4632 15.2078 14.6927 14.9784 14.8365 14.6961C15 14.3753 15 13.9552 15 13.1151V5.91514C15 5.07506 15 4.65502 14.8365 4.33415C14.6927 4.05191 14.4632 3.82244 14.181 3.67863C13.8601 3.51514 13.4401 3.51514 12.6 3.51514H5.4C4.55992 3.51514 4.13988 3.51514 3.81901 3.67863C3.53677 3.82244 3.3073 4.05191 3.16349 4.33415C3 4.65502 3 5.07506 3 5.91514V13.1151C3 13.9552 3 14.3753 3.16349 14.6961C3.3073 14.9784 3.53677 15.2078 3.81901 15.3516C4.13988 15.5151 4.55992 15.5151 5.4 15.5151Z" stroke="#7E7E7E" stroke-width="1.5" stroke-linecap="round" stroke-linejoin="round"/>
</svg>
